# xmcd CD database file
#
# Track frame offsets:
#	180
#	11158
#	22082
#	41582
#	58539
#	70976
#	83599
#	104181
#	116702
#	133781
#	148811
#	158796
#
# Disc length: 2258 seconds
#
# Revision: 1
# Processed by: cddbd v1.4PL0 Copyright (c) Steve Scherf et al.
# Submitted via: NeoAudio 9.9.9
#
DISCID=af08d00c
DTITLE=Veteranos De La Salsa - Veteranos De La Salsa
DYEAR=1900
DGENRE=Salsa
TTITLE0=Pachanga Yes
TTITLE1=Ponte Duro
TTITLE2=El Montuno De Hoy
TTITLE3=El Timbal
TTITLE4=Mensajero Guajiro
TTITLE5=El Guariquiten
TTITLE6=El Guajiro De Cunagua
TTITLE7=Yo Vengo De Oriente
TTITLE8=Asi Son Los Compadres
TTITLE9=Sabroson
TTITLE10=El Manicero
TTITLE11=Descarga Lagos
EXTD=
EXTT0=
EXTT1=
EXTT2=
EXTT3=
EXTT4=
EXTT5=
EXTT6=
EXTT7=
EXTT8=
EXTT9=
EXTT10=
EXTT11=
PLAYORDER=
